<svg viewBox="0 0 138 29" fill="none" xmlns="http://www.w3.org/2000/svg">
<path fill-rule="evenodd" clip-rule="evenodd" d="M126.53 0.438593C125.576 0.634815 124.796 1.62454 124.796 2.6382C124.796 3.74853 125.487 4.49131 126.53 4.50375C129.196 4.5363 124.822 7.53132 114.574 12.6896C94.045 23.0214 74.5312 26.4615 52.9236 23.5574C36.6218 21.3655 17.6418 14.4163 7.57783 6.95414C2.88112 3.47191 -9.15527e-05 3.03543 -9.15527e-05 5.80648C-9.15527e-05 7.91324 8.65445 13.6037 19.2037 18.4336C30.067 23.4062 43.8342 27.0473 57.237 28.4917C79.5597 30.8971 105.082 24.6716 125.673 11.7984L132.579 7.48059L132.402 10.0497C132.265 12.0282 132.675 12.6187 134.183 12.6187C135.747 12.6187 136.382 11.5678 137.343 7.38391C138.127 3.97538 138.211 1.7595 137.585 1.03013C136.683 -0.0189445 130.402 -0.35587 126.53 0.438593Z" fill="currentColor"/>
</svg>
