<svg viewBox="0 0 87 105" fill="none" xmlns="http://www.w3.org/2000/svg">
<path fill-rule="evenodd" clip-rule="evenodd" d="M7.21796 5.42681C3.24813 8.77349 -9.15527e-05 12.0754 -9.15527e-05 12.7655C-9.15527e-05 14.9752 11.385 27.6983 13.3617 27.6983C16.1384 27.6983 15.6231 24.6763 12.1543 20.6121C10.5007 18.6741 9.14698 16.7799 9.14698 16.4043C9.14698 14.8907 24.2752 18.7392 31.1213 21.9953C41.4067 26.8871 48.3838 34.3978 51.2377 43.649C51.9146 45.8424 51.8811 45.8475 46.5402 44.4235C34.2577 41.1491 24.9379 43.1777 18.4943 50.5266C8.99148 61.3666 14.2937 77.989 28.7329 82.6223C33.7922 84.2457 39.4024 83.2045 45.1031 79.583C50.8708 75.9208 54.5175 70.2147 56.7707 61.329L58.5218 54.4208L63.9582 58.0545C71.6062 63.1651 77.8425 71.4535 80.4504 79.9688C82.5766 86.9156 82.6172 90.4933 80.6903 101.328C80.0337 105.023 80.1282 105.216 82.4302 104.891C84.5412 104.591 85.0453 103.666 86.2242 97.9297C88.6939 85.9069 85.2079 73.1044 76.5964 62.5799C74.6583 60.2114 69.4373 55.8652 64.9939 52.9226C59.3481 49.183 56.915 46.9539 56.914 45.5228C56.913 41.6397 51.0578 31.2485 46.1164 26.3568C38.5477 18.8664 21.5535 11.4687 11.7285 11.3873L8.63881 11.3619L12.9583 7.27929C15.3334 5.03392 17.2777 2.57481 17.2777 1.8155C17.2777 -1.4752 14.0173 -0.304678 7.21796 5.42681ZM27.8934 49.0313C24.5618 50.382 19.4689 56.8616 18.7585 60.6521C17.3793 68.0162 24.0577 76.9855 31.8632 78.2547C36.4916 79.0059 43.7239 75.7009 47.0118 71.3323C50.1086 67.2162 52.8496 59.4408 52.8496 54.77C52.8496 51.5037 52.6281 51.3144 46.9386 49.7163C40.6739 47.9555 31.3703 47.6216 27.8934 49.0313Z" fill="currentColor"/>
</svg>
