<svg viewBox="0 0 112 75" fill="none" xmlns="http://www.w3.org/2000/svg">
<path fill-rule="evenodd" clip-rule="evenodd" d="M107.836 65.8035C110.312 61.2731 112.136 57.0444 111.887 56.4054C111.092 54.3593 95.9529 46.6835 94.1198 47.3964C91.5449 48.3976 93.1108 51.01 97.7909 53.5225C100.022 54.7208 101.96 55.9866 102.095 56.3344C102.64 57.7358 87.2252 59.6274 79.7042 59.081C68.405 58.2602 59.2306 53.8215 53.2531 46.2843C51.8357 44.4974 51.8649 44.4806 57.3304 43.8732C69.8993 42.4763 77.8115 37.2373 81.1408 28.1091C86.05 14.645 75.1481 1.16525 60.09 2.08167C54.8138 2.40275 49.9862 5.38989 46.0037 10.7988C41.9737 16.2697 40.6466 22.8682 41.7565 31.9085L42.6199 38.9366L36.2702 37.5323C27.3379 35.5578 18.5706 30.1319 13.0862 23.1875C8.61327 17.5217 7.28738 14.2235 5.17314 3.49596C4.45166 -0.161999 4.29437 -0.306986 2.27692 0.824689C0.427126 1.86296 0.29279 2.90145 1.265 8.6384C3.30364 20.6616 11.146 31.2591 22.921 37.8992C25.5712 39.3935 31.9776 41.5352 37.1576 42.6577C43.7396 44.0846 46.7984 45.2713 47.3147 46.596C48.7137 50.1912 57.8848 57.7018 64.2285 60.4495C73.9441 64.6561 92.3669 65.3781 101.507 61.9107L104.382 60.8202L101.846 66.158C100.452 69.0936 99.5343 72.0717 99.8077 72.7748C100.992 75.8219 103.595 73.5623 107.836 65.8035ZM72.9631 32.8828C75.5662 30.4308 77.956 22.5945 77.25 18.8285C75.8775 11.5123 66.455 5.61533 58.7597 7.25463C54.1972 8.22803 48.6804 13.8961 47.2044 19.1269C45.8147 24.0549 46.0724 32.243 47.7542 36.568C48.9302 39.5924 49.2038 39.6879 55.0552 39.116C61.4987 38.4875 70.2464 35.4419 72.9631 32.8828Z" fill="currentColor"/>
</svg>
