<svg  viewBox="0 0 131 65" fill="none" xmlns="http://www.w3.org/2000/svg">
<path fill-rule="evenodd" clip-rule="evenodd" d="M14.3716 60.5006C15.1833 59.9349 15.5083 58.6702 15.0949 57.6897C14.642 56.6156 13.6937 56.1691 12.7136 56.5682C10.2078 57.5876 13.0752 52.9665 20.552 43.9373C35.5299 25.8513 52.3695 14.8321 73.754 9.12474C89.8878 4.81976 110.466 4.06104 122.917 7.31287C128.728 8.83019 131.6 8.11678 130.47 5.43622C129.611 3.39825 119.199 1.3048 107.367 0.790558C95.1833 0.262108 80.8279 2.16623 67.7091 6.05171C45.8595 12.5234 24.5392 28.6051 10.5395 49.174L5.84397 56.073L4.96192 53.518C4.28277 51.5502 3.65949 51.1401 2.2493 51.7347C0.78726 52.3511 0.622389 53.618 1.42969 58.0443C2.08744 61.6503 2.91248 63.827 3.79514 64.2859C5.06652 64.9451 11.0753 62.7955 14.3716 60.5006Z" fill="currentColor"/>
</svg>
