{
  "asset": {
    "generator": "Khronos glTF Blender I/O v4.4.56",
    "version": "2.0"
  },
  "extensionsUsed": ["KHR_materials_specular", "KHR_materials_ior"],
  "scene": 0,
  "scenes": [
    {
      "name": "Scene",
      "nodes": [0, 1, 2]
    }
  ],
  "nodes": [
    {
      "mesh": 0,
      "name": "Lid",
      "scale": [4.027943134307861, 0.3178163468837738, 4.027943134307861],
      "translation": [0, 5.6412763595581055, 0]
    },
    {
      "mesh": 1,
      "name": "Can",
      "scale": [3.940922498703003, 4.894371509552002, 3.940922498703003],
      "translation": [0, -0.04787277430295944, 0]
    },
    {
      "mesh": 2,
      "name": "Bottom",
      "rotation": [-1, 0, 0, 4.371138828673793e-8],
      "scale": [4.03626823425293, 0.3178163468837738, 4.03626823425293],
      "translation": [0, -5.5975728034973145, 0]
    }
  ],
  "materials": [
    {
      "doubleSided": true,
      "name": "CapricareLid",
      "pbrMetallicRoughness": {
        "baseColorFactor": [
          0.05374268442392349, 0.2936638593673706, 0.037327926605939865, 1
        ],
        "metallicFactor": 0,
        "roughnessFactor": 0.29745617508888245
      }
    },
    {
      "doubleSided": true,
      "extensions": {
        "KHR_materials_specular": {
          "specularColorFactor": [
            1.4909090995788574, 1.4909090995788574, 1.4909090995788574
          ]
        },
        "KHR_materials_ior": {
          "ior": 1.4500000476837158
        }
      },
      "name": "Capricare1Can",
      "pbrMetallicRoughness": {
        "baseColorTexture": {
          "index": 0
        },
        "metallicFactor": 0.04545457661151886,
        "roughnessFactor": 0.07727272808551788
      }
    },
    {
      "doubleSided": true,
      "extensions": {
        "KHR_materials_specular": {
          "specularColorFactor": [2.0, 2.0, 2.0]
        },
        "KHR_materials_ior": {
          "ior": 1.4500000476837158
        }
      },
      "name": "Capricare_Aluminium Bottom.001",
      "pbrMetallicRoughness": {
        "baseColorFactor": [
          0.5257269740104675, 0.5257269740104675, 0.5257269740104675, 1
        ]
      }
    }
  ],
  "meshes": [
    {
      "name": "Cone",
      "primitives": [
        {
          "attributes": {
            "POSITION": 0,
            "NORMAL": 1,
            "TEXCOORD_0": 2,
            "TEXCOORD_1": 3
          },
          "indices": 4,
          "material": 0
        }
      ]
    },
    {
      "name": "Cylinder",
      "primitives": [
        {
          "attributes": {
            "POSITION": 5,
            "NORMAL": 6,
            "TEXCOORD_0": 7
          },
          "indices": 8,
          "material": 1
        }
      ]
    },
    {
      "name": "Cone.004",
      "primitives": [
        {
          "attributes": {
            "POSITION": 9,
            "NORMAL": 10,
            "TEXCOORD_0": 11,
            "TEXCOORD_1": 12
          },
          "indices": 13,
          "material": 2
        }
      ]
    }
  ],
  "textures": [
    {
      "sampler": 0,
      "source": 0
    }
  ],
  "images": [
    {
      "mimeType": "image/jpeg",
      "name": "../wrappers/DGC_Capricare_400gCan",
      "uri": "../wrappers/DGC_Capricare_400gCan.jpg"
    }
  ],
  "accessors": [
    {
      "bufferView": 0,
      "componentType": 5126,
      "count": 1961,
      "max": [1.006011724472046, -1.0178033113479614, 1.006011724472046],
      "min": [-1.006011724472046, -2.5572586059570312, -1.006011724472046],
      "type": "VEC3"
    },
    {
      "bufferView": 1,
      "componentType": 5126,
      "count": 1961,
      "type": "VEC3"
    },
    {
      "bufferView": 2,
      "componentType": 5126,
      "count": 1961,
      "type": "VEC2"
    },
    {
      "bufferView": 3,
      "componentType": 5126,
      "count": 1961,
      "type": "VEC2"
    },
    {
      "bufferView": 4,
      "componentType": 5123,
      "count": 9210,
      "type": "SCALAR"
    },
    {
      "bufferView": 5,
      "componentType": 5126,
      "count": 2541,
      "max": [1, 1, 1],
      "min": [-1, -1, -1],
      "type": "VEC3"
    },
    {
      "bufferView": 6,
      "componentType": 5126,
      "count": 2541,
      "type": "VEC3"
    },
    {
      "bufferView": 7,
      "componentType": 5126,
      "count": 2541,
      "type": "VEC2"
    },
    {
      "bufferView": 8,
      "componentType": 5123,
      "count": 14592,
      "type": "SCALAR"
    },
    {
      "bufferView": 9,
      "componentType": 5126,
      "count": 3495,
      "max": [0.9883403182029724, -1.0381951332092285, 0.9883403182029724],
      "min": [-0.9883403182029724, -2.1269378662109375, -0.9883403182029724],
      "type": "VEC3"
    },
    {
      "bufferView": 10,
      "componentType": 5126,
      "count": 3495,
      "type": "VEC3"
    },
    {
      "bufferView": 11,
      "componentType": 5126,
      "count": 3495,
      "type": "VEC2"
    },
    {
      "bufferView": 12,
      "componentType": 5126,
      "count": 3495,
      "type": "VEC2"
    },
    {
      "bufferView": 13,
      "componentType": 5123,
      "count": 17856,
      "type": "SCALAR"
    }
  ],
  "bufferViews": [
    {
      "buffer": 0,
      "byteLength": 23532,
      "byteOffset": 0,
      "target": 34962
    },
    {
      "buffer": 0,
      "byteLength": 23532,
      "byteOffset": 23532,
      "target": 34962
    },
    {
      "buffer": 0,
      "byteLength": 15688,
      "byteOffset": 47064,
      "target": 34962
    },
    {
      "buffer": 0,
      "byteLength": 15688,
      "byteOffset": 62752,
      "target": 34962
    },
    {
      "buffer": 0,
      "byteLength": 18420,
      "byteOffset": 78440,
      "target": 34963
    },
    {
      "buffer": 0,
      "byteLength": 30492,
      "byteOffset": 96860,
      "target": 34962
    },
    {
      "buffer": 0,
      "byteLength": 30492,
      "byteOffset": 127352,
      "target": 34962
    },
    {
      "buffer": 0,
      "byteLength": 20328,
      "byteOffset": 157844,
      "target": 34962
    },
    {
      "buffer": 0,
      "byteLength": 29184,
      "byteOffset": 178172,
      "target": 34963
    },
    {
      "buffer": 0,
      "byteLength": 41940,
      "byteOffset": 207356,
      "target": 34962
    },
    {
      "buffer": 0,
      "byteLength": 41940,
      "byteOffset": 249296,
      "target": 34962
    },
    {
      "buffer": 0,
      "byteLength": 27960,
      "byteOffset": 291236,
      "target": 34962
    },
    {
      "buffer": 0,
      "byteLength": 27960,
      "byteOffset": 319196,
      "target": 34962
    },
    {
      "buffer": 0,
      "byteLength": 35712,
      "byteOffset": 347156,
      "target": 34963
    }
  ],
  "samplers": [
    {
      "magFilter": 9729,
      "minFilter": 9987
    }
  ],
  "buffers": [
    {
      "byteLength": 382868,
      "uri": "can.bin"
    }
  ]
}
