<svg width="10" height="10" viewBox="0 0 10 10" fill="none" xmlns="http://www.w3.org/2000/svg">
<g id="Check" clip-path="url(#clip0_109_2418)">
<path id="Vector" d="M8.4668 1.68341C8.63409 1.55123 8.87654 1.55042 9.0459 1.69318L9.11035 1.75958C9.22384 1.90308 9.24092 2.1019 9.15332 2.26251L9.10059 2.33868L4.11426 8.25275C4.05251 8.32575 3.97 8.37667 3.87891 8.40021L3.78516 8.41486C3.68926 8.41913 3.59495 8.39288 3.51562 8.34161L3.44141 8.28204L0.927734 5.78888C0.748398 5.61074 0.747031 5.32109 0.924805 5.14142L0.99707 5.08185C1.17446 4.96382 1.41604 4.98261 1.57324 5.13849L3.73438 7.28107L8.40039 1.74786L8.4668 1.68341Z" fill="white" stroke="white" stroke-width="0.0833333" stroke-linecap="round" stroke-linejoin="round"/>
</g>
<defs>
<clipPath id="clip0_109_2418">
<rect width="10" height="10" fill="white"/>
</clipPath>
</defs>
</svg>
